<svg xmlns="http://www.w3.org/2000/svg" viewBox="0 0 512 512" fill="#FFD700">
  <!-- Batman-style bat silhouette -->
  <path d="M256 32c-12 0-20 8-24 18-6 14-4 28-8 42-30-8-50-28-92-28 18 24 18 44 10 64 42-10 68 6 114 6 12 0 20-4 26-10-4 36-4 56 0 92-4-6-12-10-26-10s-22 4-26 10c4-36 4-56 0-92-6 6-14 10-26 10H256c-44 0-68 16-114 6 8 20 8 40-10 64 42 0 62-20 92-28 4 14 2 28 8 42 4 10 12 18 24 18s20-8 24-18c0-2 2-4 4-6-4 42-6 68-12 94 4-2 8-4 12-4s8 2 12 4c-6-26-8-52-12-94 2 2 4 4 4 6 4 10 12 18 24 18s20-8 24-18c6-14 4-28 8-42 30 8 50 28 92 28-18-24-18-44-10-64-44 10-70-6-114-6-44 0-70 16-114 6 8-20 8-40-10-64 42 0 62 20 92 28 4-14 2-28 8-42 0-2 4-4 10-4z M256 52c-6 0-10 4-12 8 4 2 6 4 10 4 4 0 8-2 10-4-2-4-4-8-8-8z" />
</svg>