<svg xmlns="http://www.w3.org/2000/svg" viewBox="0 0 512 320" fill="#FFD700">
  <path d="M256 30
    c-8,0-14,6-16,14
    c-2,8-1,16-3,24
    c-30-12-60-14-90-8
    c10,16 8,32-2,44
    c-20-6-40-4-58,6
    c8,12 6,28-6,36
    c-24-8-50-6-72,8
    c4,8 0,18-10,22
    c-20-4-40,2-54,18
    c8,4 10,14 4,22
    c-18-2-36,6-46,22
    c8,2 12,12 8,20
    c-14,4-26,14-32,28
    c8,0 14,6 14,14
    c-12,6-22,16-26,30
    c8,-2 16,2 18,10
    c-8,8-14,20-14,32
    c6,-4 14,-4 20,0
    c-2,12 4,24 16,30
    c4,-6 12,-8 18,-4
    c2,10 10,18 20,20
    c4,-8 14,-12 22,-8
    c0,10 8,18 18,20
    c4,-10 16,-16 26,-14
    c2,-10 12,-18 22,-18
    c-2,-10 4,-20 14,-24
    c8,4 18,2 22,-8
    c10,2 20,-2 26,-12
    c8,6 20,6 28,0
    c4,-8 14,-14 24,-12
    c4,-10 14,-18 24,-20
    c-2,-10 4,-20 14,-22
    c6,-8 16,-10 26,-6
    c2,-10 10,-18 20,-20
    c-4,-8 0,-18 10,-20
    c8,-6 18,-6 26,0
    c0,-8 6,-14 14,-14
    c-6,-14-16,-24-30,-28
    c4,-8 2,-18-6,-22
    c8,-6 20,-6 28,0
    c-4,-10 0,-22 10,-26
    c-10,-6-24,-8-36,-4
    c2,-10 0,-22-8,-28
    c14,-4 28,-2 40,6
    c-4,-14 2,-30 16,-36
    c-18,-10-38,-12-58,-6
    c8,-12 6,-28-4,-36
    c-30,6-60,4-88,-8
    c2,-8 1,-16-3,-24
    c-2-8-8-14-16-14

    z" />
  <circle cx="240" cy="52" r="7" fill="#0a0a0f"/>
  <circle cx="272" cy="52" r="7" fill="#0a0a0f"/>
</svg>